Units are S.I. units (second, meters, Newtons, ...)
Angles are in degrees.
name walk
datarows 88
datacolumns 13
range 5.000000 6.403226
endheader
time exo_pelvis_tx exo_pelvis_ty exo_pelvis_tz exo_pelvis_tilt exo_pelvis_list exo_pelvis_rotation exo_hip_r exo_hip_l exo_knee_r exo_knee_l r_ankle_coupling l_ankle_coupling
5.000000	0.238255	0.933373	0.000000	0.000000	0.000000	0.000000	22.483310	2.555720	-47.019660	-12.979790	24.536350	10.422923
5.016129	0.240255	0.933438	0.000000	0.000000	0.000000	0.000000	22.474251	2.292126	-46.687291	-12.744819	24.213003	10.451548
5.032258	0.242255	0.933502	0.000000	0.000000	0.000000	0.000000	22.465193	2.028532	-46.354923	-12.509848	23.889656	10.480172
5.048387	0.244255	0.933567	0.000000	0.000000	0.000000	0.000000	22.456134	1.764937	-46.022554	-12.274877	23.566309	10.508797
5.064516	0.246255	0.933631	0.000000	0.000000	0.000000	0.000000	22.447075	1.501343	-45.690185	-12.039906	23.242962	10.537422
5.080645	0.248255	0.933696	0.000000	0.000000	0.000000	0.000000	22.438016	1.237749	-45.357816	-11.804935	22.919615	10.566046
5.096774	0.250255	0.933760	0.000000	0.000000	0.000000	0.000000	22.428958	0.974155	-45.025448	-11.569964	22.596267	10.594671
5.112903	0.252255	0.933825	0.000000	0.000000	0.000000	0.000000	22.419899	0.710561	-44.693079	-11.334993	22.272920	10.623295
5.129032	0.254255	0.933890	0.000000	0.000000	0.000000	0.000000	22.410840	0.446966	-44.360710	-11.100022	21.949573	10.651920
5.145161	0.256255	0.933954	0.000000	0.000000	0.000000	0.000000	22.401782	0.183372	-44.028342	-10.865051	21.626226	10.680545
5.161290	0.258255	0.934019	0.000000	0.000000	0.000000	0.000000	22.392723	-0.080222	-43.695973	-10.630080	21.302879	10.709169
5.177419	0.260255	0.934083	0.000000	0.000000	0.000000	0.000000	22.383664	-0.343816	-43.363604	-10.395109	20.979532	10.737794
5.193548	0.262255	0.934148	0.000000	0.000000	0.000000	0.000000	22.374605	-0.607410	-43.031235	-10.160138	20.656185	10.766419
5.209677	0.264255	0.934212	0.000000	0.000000	0.000000	0.000000	22.365547	-0.871005	-42.698867	-9.925167	20.332838	10.795043
5.225806	0.266255	0.934277	0.000000	0.000000	0.000000	0.000000	22.356488	-1.134599	-42.366498	-9.690196	20.009491	10.823668
5.241935	0.268255	0.934341	0.000000	0.000000	0.000000	0.000000	22.347429	-1.398193	-42.034129	-9.455225	19.686144	10.852292
5.258065	0.270254	0.934406	0.000000	0.000000	0.000000	0.000000	22.338371	-1.661787	-41.701761	-9.220255	19.362796	10.880917
5.274194	0.272254	0.934470	0.000000	0.000000	0.000000	0.000000	22.329312	-1.925381	-41.369392	-8.985284	19.039449	10.909542
5.290323	0.274254	0.934535	0.000000	0.000000	0.000000	0.000000	22.320253	-2.188975	-41.037023	-8.750313	18.716102	10.938166
5.306452	0.276254	0.934599	0.000000	0.000000	0.000000	0.000000	22.311195	-2.452570	-40.704655	-8.515342	18.392755	10.966791
5.322581	0.278254	0.934664	0.000000	0.000000	0.000000	0.000000	22.302136	-2.716164	-40.372286	-8.280371	18.069408	10.995416
5.338710	0.280254	0.934728	0.000000	0.000000	0.000000	0.000000	22.293077	-2.979758	-40.039917	-8.045400	17.746061	11.024040
5.354839	0.282254	0.934793	0.000000	0.000000	0.000000	0.000000	22.284018	-3.243352	-39.707548	-7.810429	17.422714	11.052665
5.370968	0.284254	0.934857	0.000000	0.000000	0.000000	0.000000	22.274960	-3.506946	-39.375180	-7.575458	17.099367	11.081289
5.387097	0.286254	0.934922	0.000000	0.000000	0.000000	0.000000	22.265901	-3.770541	-39.042811	-7.340487	16.776020	11.109914
5.403226	0.288254	0.934986	0.000000	0.000000	0.000000	0.000000	22.256842	-4.034135	-38.710442	-7.105516	16.452673	11.138539
5.419355	0.290254	0.935051	0.000000	0.000000	0.000000	0.000000	22.247784	-4.297729	-38.378074	-6.870545	16.129325	11.167163
5.435484	0.292254	0.935115	0.000000	0.000000	0.000000	0.000000	22.238725	-4.561323	-38.045705	-6.635574	15.805978	11.195788
5.451613	0.294254	0.935180	0.000000	0.000000	0.000000	0.000000	22.229666	-4.824917	-37.713336	-6.400603	15.482631	11.224413
5.467742	0.296254	0.935244	0.000000	0.000000	0.000000	0.000000	22.220607	-5.088512	-37.380967	-6.165632	15.159284	11.253037
5.483871	0.298254	0.935309	0.000000	0.000000	0.000000	0.000000	22.211549	-5.352106	-37.048599	-5.930661	14.835937	11.281662
5.500000	0.300254	0.935373	0.000000	0.000000	0.000000	0.000000	22.202490	-5.615700	-36.716230	-5.695690	14.512590	11.310287
5.516129	0.302602	0.935083	0.000000	0.000000	0.000000	0.000000	22.095914	-5.879297	-36.226932	-5.525235	14.129868	11.403427
5.532258	0.304950	0.934793	0.000000	0.000000	0.000000	0.000000	21.989338	-6.142894	-35.737634	-5.354780	13.747145	11.496568
5.548387	0.307298	0.934502	0.000000	0.000000	0.000000	0.000000	21.882763	-6.406491	-35.248336	-5.184326	13.364423	11.589709
5.564516	0.309646	0.934212	0.000000	0.000000	0.000000	0.000000	21.776187	-6.670088	-34.759038	-5.013871	12.981700	11.682850
5.580645	0.311994	0.933922	0.000000	0.000000	0.000000	0.000000	21.669611	-6.933685	-34.269740	-4.843416	12.598978	11.775990
5.596774	0.314343	0.933631	0.000000	0.000000	0.000000	0.000000	21.563035	-7.197283	-33.780442	-4.672961	12.216256	11.869131
5.612903	0.316691	0.933341	0.000000	0.000000	0.000000	0.000000	21.456459	-7.460880	-33.291144	-4.502506	11.833533	11.962272
5.629032	0.319039	0.933051	0.000000	0.000000	0.000000	0.000000	21.349884	-7.724477	-32.801845	-4.332051	11.450811	12.055413
5.645161	0.321387	0.932760	0.000000	0.000000	0.000000	0.000000	21.243308	-7.988074	-32.312547	-4.161597	11.068089	12.148553
5.661290	0.323735	0.932470	0.000000	0.000000	0.000000	0.000000	21.136732	-8.251671	-31.823249	-3.991142	10.685366	12.241694
5.677419	0.326083	0.932180	0.000000	0.000000	0.000000	0.000000	21.030156	-8.515268	-31.333951	-3.820687	10.302644	12.334835
5.693548	0.328431	0.931890	0.000000	0.000000	0.000000	0.000000	20.923580	-8.778865	-30.844653	-3.650232	9.919921	12.427976
5.709677	0.330779	0.931599	0.000000	0.000000	0.000000	0.000000	20.817005	-9.042462	-30.355355	-3.479777	9.537199	12.521116
5.725806	0.333127	0.931309	0.000000	0.000000	0.000000	0.000000	20.710429	-9.306059	-29.866057	-3.309323	9.154477	12.614257
5.741935	0.335475	0.931019	0.000000	0.000000	0.000000	0.000000	20.603853	-9.569656	-29.376759	-3.138868	8.771754	12.707398
5.758065	0.337824	0.930728	0.000000	0.000000	0.000000	0.000000	20.497277	-9.833254	-28.887461	-2.968413	8.389032	12.800539
5.774194	0.340172	0.930438	0.000000	0.000000	0.000000	0.000000	20.390701	-10.096851	-28.398163	-2.797958	8.006309	12.893679
5.790323	0.342520	0.930148	0.000000	0.000000	0.000000	0.000000	20.284125	-10.360448	-27.908865	-2.627503	7.623587	12.986820
5.806452	0.344868	0.929857	0.000000	0.000000	0.000000	0.000000	20.177550	-10.624045	-27.419567	-2.457048	7.240865	13.079961
5.822581	0.347216	0.929567	0.000000	0.000000	0.000000	0.000000	20.070974	-10.887642	-26.930269	-2.286594	6.858142	13.173102
5.838710	0.349564	0.929277	0.000000	0.000000	0.000000	0.000000	19.964398	-11.151239	-26.440971	-2.116139	6.475420	13.266242
5.854839	0.351912	0.928986	0.000000	0.000000	0.000000	0.000000	19.857822	-11.414836	-25.951673	-1.945684	6.092697	13.359383
5.870968	0.354260	0.928696	0.000000	0.000000	0.000000	0.000000	19.751246	-11.678433	-25.462375	-1.775229	5.709975	13.452524
5.887097	0.356608	0.928406	0.000000	0.000000	0.000000	0.000000	19.644671	-11.942030	-24.973076	-1.604774	5.327253	13.545665
5.903226	0.358956	0.928115	0.000000	0.000000	0.000000	0.000000	19.538095	-12.205627	-24.483778	-1.434320	4.944530	13.638805
5.919355	0.361305	0.927825	0.000000	0.000000	0.000000	0.000000	19.431519	-12.469225	-23.994480	-1.263865	4.561808	13.731946
5.935484	0.363653	0.927535	0.000000	0.000000	0.000000	0.000000	19.324943	-12.732822	-23.505182	-1.093410	4.179086	13.825087
5.951613	0.366001	0.927244	0.000000	0.000000	0.000000	0.000000	19.218367	-12.996419	-23.015884	-0.922955	3.796363	13.918228
5.967742	0.368349	0.926954	0.000000	0.000000	0.000000	0.000000	19.111792	-13.260016	-22.526586	-0.752500	3.413641	14.011368
5.983871	0.370697	0.926664	0.000000	0.000000	0.000000	0.000000	19.005216	-13.523613	-22.037288	-0.582046	3.030918	14.104509
6.000000	0.373045	0.926373	0.000000	0.000000	0.000000	0.000000	18.898640	-13.787210	-21.547990	-0.411591	2.648196	14.197650
6.016129	0.377239	0.926599	0.000000	0.000000	0.000000	0.000000	18.515689	-12.836555	-21.442051	-1.389124	2.915530	14.224543
6.032258	0.381432	0.926825	0.000000	0.000000	0.000000	0.000000	18.132739	-11.885901	-21.336113	-2.366656	3.182865	14.251436
6.048387	0.385626	0.927051	0.000000	0.000000	0.000000	0.000000	17.749788	-10.935246	-21.230174	-3.344189	3.450199	14.278330
6.064516	0.389819	0.927277	0.000000	0.000000	0.000000	0.000000	17.366837	-9.984592	-21.124235	-4.321722	3.717533	14.305223
6.080645	0.394013	0.927502	0.000000	0.000000	0.000000	0.000000	16.983887	-9.033937	-21.018296	-5.299255	3.984868	14.332116
6.096774	0.398206	0.927728	0.000000	0.000000	0.000000	0.000000	16.600936	-8.083283	-20.912358	-6.276788	4.252202	14.359009
6.112903	0.402400	0.927954	0.000000	0.000000	0.000000	0.000000	16.217985	-7.132628	-20.806419	-7.254321	4.519536	14.385903
6.129032	0.406593	0.928180	0.000000	0.000000	0.000000	0.000000	15.835035	-6.181974	-20.700480	-8.231854	4.786870	14.412796
6.145161	0.410787	0.928406	0.000000	0.000000	0.000000	0.000000	15.452084	-5.231319	-20.594542	-9.209387	5.054205	14.439689
6.161290	0.414980	0.928631	0.000000	0.000000	0.000000	0.000000	15.069134	-4.280665	-20.488603	-10.186920	5.321539	14.466582
6.177419	0.419174	0.928857	0.000000	0.000000	0.000000	0.000000	14.686183	-3.330010	-20.382664	-11.164452	5.588873	14.493475
6.193548	0.423368	0.929083	0.000000	0.000000	0.000000	0.000000	14.303232	-2.379356	-20.276725	-12.141985	5.856208	14.520369
6.209677	0.427561	0.929309	0.000000	0.000000	0.000000	0.000000	13.920282	-1.428701	-20.170787	-13.119518	6.123542	14.547262
6.225806	0.431755	0.929535	0.000000	0.000000	0.000000	0.000000	13.537331	-0.478047	-20.064848	-14.097051	6.390876	14.574155
6.241935	0.435948	0.929760	0.000000	0.000000	0.000000	0.000000	13.154380	0.472608	-19.958909	-15.074584	6.658211	14.601048
6.258065	0.440142	0.929986	0.000000	0.000000	0.000000	0.000000	12.771430	1.423262	-19.852971	-16.052117	6.925545	14.627942
6.274194	0.444335	0.930212	0.000000	0.000000	0.000000	0.000000	12.388479	2.373917	-19.747032	-17.029650	7.192879	14.654835
6.290323	0.448529	0.930438	0.000000	0.000000	0.000000	0.000000	12.005528	3.324571	-19.641093	-18.007183	7.460214	14.681728
6.306452	0.452722	0.930664	0.000000	0.000000	0.000000	0.000000	11.622578	4.275226	-19.535155	-18.984715	7.727548	14.708621
6.322581	0.456916	0.930890	0.000000	0.000000	0.000000	0.000000	11.239627	5.225880	-19.429216	-19.962248	7.994882	14.735515
6.338710	0.461110	0.931115	0.000000	0.000000	0.000000	0.000000	10.856676	6.176535	-19.323277	-20.939781	8.262216	14.762408
6.354839	0.465303	0.931341	0.000000	0.000000	0.000000	0.000000	10.473726	7.127189	-19.217338	-21.917314	8.529551	14.789301
6.370968	0.469497	0.931567	0.000000	0.000000	0.000000	0.000000	10.090775	8.077844	-19.111400	-22.894847	8.796885	14.816194
6.387097	0.473690	0.931793	0.000000	0.000000	0.000000	0.000000	9.707825	9.028498	-19.005461	-23.872380	9.064219	14.843087
6.403226	0.477884	0.932019	0.000000	0.000000	0.000000	0.000000	9.324874	9.979153	-18.899522	-24.849913	9.331554	14.869981
